<?xml version="1.0" standalone="no"?>
<!DOCTYPE svg PUBLIC "-//W3C//DTD SVG 20010904//EN" "http://www.w3.org/TR/2001/REC-SVG-20010904/DTD/svg10.dtd">
<svg version="1.0" xmlns="http://www.w3.org/2000/svg" width="256px" height="256px" viewBox="0 0 2560 2560" preserveAspectRatio="xMidYMid meet">
	<g fill="#ffffff" stroke="none">
		<path d="M909 1556 l-35 -61 107 -105 c156 -154 244 -283 269 -396 20 -89 -13 -135 -158 -218 -107 -62 -156 -107 -188 -171 -24 -50 -26 -63 -22 -143 4 -68 10 -98 30 -137 98 -189 319 -222 471 -71 88 89 140 210 158 373 30 274 -68 513 -310 753 -79 78 -232 207 -276 232 -5 3 -26 -22 -46 -56z"/>
		<path d="M1776 1560 c-20 -34 -36 -63 -36 -64 0 -2 53 -57 118 -122 219 -220 305 -398 240 -494 -14 -20 -63 -57 -123 -92 -112 -67 -176 -123 -208 -183 -33 -60 -31 -201 3 -270 76 -156 241 -218 388 -144 146 72 234 242 248 474 17 275 -83 496 -334 736 -54 52 -135 122 -179 157 l-82 62 -35 -60z"/>
	</g>
	<g fill="#808080" stroke="none">
		<path d="M0 1280 l0 -1280 1280 0 1280 0 0 1280 0 1280 -1280 0 -1280 0 0 -1280z m1050 261 c173 -134 336 -316 407 -456 72 -140 101 -301 84 -458 -18 -163 -70 -284 -158 -373 -152 -151 -373 -118 -471 71 -20 39 -26 69 -30 137 -4 80 -2 93 22 143 32 64 81 109 188 171 145 83 178 129 158 218 -25 113 -113 242 -269 396 l-107 105 35 61 c20 34 41 59 46 56 6 -3 48 -35 95 -71z m1022 -140 c251 -240 351 -461 334 -736 -14 -232 -102 -402 -248 -474 -147 -74 -312 -12 -388 144 -34 69 -36 210 -3 270 32 60 96 116 208 183 60 35 109 72 123 92 65 96 -21 274 -240 494 -65 65 -118 120 -118 122 0 1 16 30 36 64 l35 60 82 -62 c44 -35 125 -105 179 -157z"/>
	</g>
</svg>